# xmcd
#
# Track frame offsets: 
#        150
#        10738
#        21141
#        31522
#        43465
#        54260
#        65258
#        78528
#        91571
#        100515
#        112810
#        122205
#        135460
#        147419
#        160641
#        172380
#        181912
#        192931
#        203035
#        214531
#        224394
#        235026
#        243390
#        253761
#
# Disc length: 3538 seconds
#
# Revision: 1
# Processed by: cddbd v1.5.2PL0 Copyright (c) Steve Scherf et al.
# Submitted via: ExactAudioCopy v0.95b2
#
DISCID=3d0dd018
DTITLE=Various Artist - New Orleans - Home of the Blues Vol 1 and 2
DYEAR=2007
DGENRE=R&B
TTITLE0=Jessie Hill - Ooh Poo Pah Doo (Part 1)
TTITLE1=Jessie Hill - Ooh Poo Pah Doo (Part 2)
TTITLE2=Aaron Neville - Over You
TTITLE3=Aaron Neville - Every Day
TTITLE4=Jessie Hill - Whip It On Me
TTITLE5=Jessie Hill - I Need Your Love
TTITLE6=Ernie K-Doe - Hello My Lover
TTITLE7=Jessie Hill - Scoop Scoobie Doobie
TTITLE8=Lee Diamond - It Won't Be Me
TTITLE9=Ernie K-Doe - Tain't It The Truth
TTITLE10=Jessie Hill - Highhead Blues
TTITLE11=Lee Diamond - Please Don't Leave
TTITLE12=Irma Thomas - Ruler Of My Heart
TTITLE13=Irma Thomas - I Done Got Over It
TTITLE14=Irma Thomas - Cry On
TTITLE15=Irma Thomas - It's Raining
TTITLE16=Benny Spellman - Lipstick Traces (On A Cigarette)
TTITLE17=Benny Spellman - Fortune Teller
TTITLE18=Ernie K-Doe - Mother-In-Law
TTITLE19=Ernie K-Doe - Wanted $10,000 Reward
TTITLE20=The Showmen - It Will Stand
TTITLE21=The Showmen - Country Fool
TTITLE22=Irma Thomas - Gone
TTITLE23=Irma Thomas - I Did My Part
EXTD=
EXTT0=
EXTT1=
EXTT2=
EXTT3=
EXTT4=
EXTT5=
EXTT6=
EXTT7=
EXTT8=
EXTT9=
EXTT10=
EXTT11=
EXTT12=
EXTT13=
EXTT14=
EXTT15=
EXTT16=
EXTT17=
EXTT18=
EXTT19=
EXTT20=
EXTT21=
EXTT22=
EXTT23=
PLAYORDER=
